<svg xmlns="http://www.w3.org/2000/svg" width="1920" height="1080" viewBox="0 0 1920 1080">
  <defs>
    <linearGradient id="sky_gradient" x1="0%" y1="0%" x2="0%" y2="100%">
      <stop offset="0%" style="stop-color:#73C8F0;stop-opacity:1" />
      <stop offset="100%" style="stop-color:#E4F1F9;stop-opacity:1" />
    </linearGradient>
  </defs>
  <rect width="100%" height="100%" fill="url(#sky_gradient)"/>
  
  <!-- Clouds -->
  <g opacity="0.9">
    <!-- Cloud 1 -->
    <path d="M150,200 C130,180 100,180 80,200 C70,160 30,160 10,190 C0,200 0,220 10,230 L90,230 C100,220 100,200 90,190 C80,180 90,170 100,170 C110,170 120,180 120,190 C130,180 140,180 150,200 Z" fill="white"/>
    
    <!-- Cloud 2 -->
    <path d="M450,150 C430,130 400,130 380,150 C370,110 330,110 310,140 C300,150 300,170 310,180 L390,180 C400,170 400,150 390,140 C380,130 390,120 400,120 C410,120 420,130 420,140 C430,130 440,130 450,150 Z" fill="white"/>
    
    <!-- Cloud 3 -->
    <path d="M800,250 C780,230 750,230 730,250 C720,210 680,210 660,240 C650,250 650,270 660,280 L740,280 C750,270 750,250 740,240 C730,230 740,220 750,220 C760,220 770,230 770,240 C780,230 790,230 800,250 Z" fill="white"/>
    
    <!-- Cloud 4 -->
    <path d="M1200,180 C1180,160 1150,160 1130,180 C1120,140 1080,140 1060,170 C1050,180 1050,200 1060,210 L1140,210 C1150,200 1150,180 1140,170 C1130,160 1140,150 1150,150 C1160,150 1170,160 1170,170 C1180,160 1190,160 1200,180 Z" fill="white"/>
    
    <!-- Cloud 5 -->
    <path d="M1600,220 C1580,200 1550,200 1530,220 C1520,180 1480,180 1460,210 C1450,220 1450,240 1460,250 L1540,250 C1550,240 1550,220 1540,210 C1530,200 1540,190 1550,190 C1560,190 1570,200 1570,210 C1580,200 1590,200 1600,220 Z" fill="white"/>
  </g>
</svg>