<svg xmlns="http://www.w3.org/2000/svg" width="1920" height="1080" viewBox="0 0 1920 1080">
  <!-- Background gradient -->
  <defs>
    <linearGradient id="bg_gradient" x1="0%" y1="0%" x2="0%" y2="100%">
      <stop offset="0%" style="stop-color:#1a3a8f;stop-opacity:1" />
      <stop offset="100%" style="stop-color:#092756;stop-opacity:1" />
    </linearGradient>
    <radialGradient id="star_glow" cx="50%" cy="50%" r="50%" fx="50%" fy="50%">
      <stop offset="0%" style="stop-color:white;stop-opacity:1" />
      <stop offset="100%" style="stop-color:white;stop-opacity:0" />
    </radialGradient>
  </defs>
  
  <!-- Background -->
  <rect width="100%" height="100%" fill="url(#bg_gradient)"/>
  
  <!-- Stars -->
  <g>
    <circle cx="200" cy="150" r="1.5" fill="white" opacity="0.8"/>
    <circle cx="400" cy="250" r="1" fill="white" opacity="0.6"/>
    <circle cx="600" cy="100" r="1.2" fill="white" opacity="0.7"/>
    <circle cx="800" cy="200" r="1.8" fill="white" opacity="0.9"/>
    <circle cx="1000" cy="150" r="1.3" fill="white" opacity="0.8"/>
    <circle cx="1200" cy="300" r="1" fill="white" opacity="0.7"/>
    <circle cx="1400" cy="250" r="1.6" fill="white" opacity="0.9"/>
    <circle cx="1600" cy="100" r="1.2" fill="white" opacity="0.8"/>
    <circle cx="1800" cy="200" r="1" fill="white" opacity="0.7"/>
    <circle cx="300" cy="300" r="1.4" fill="white" opacity="0.8"/>
    <circle cx="500" cy="150" r="1.1" fill="white" opacity="0.7"/>
    <circle cx="700" cy="250" r="1.5" fill="white" opacity="0.9"/>
    <circle cx="900" cy="100" r="1" fill="white" opacity="0.6"/>
    <circle cx="1100" cy="200" r="1.2" fill="white" opacity="0.8"/>
    <circle cx="1300" cy="150" r="1.7" fill="white" opacity="0.9"/>
    <circle cx="1500" cy="300" r="1.3" fill="white" opacity="0.8"/>
    <circle cx="1700" cy="250" r="1" fill="white" opacity="0.7"/>
    <circle cx="1900" cy="100" r="1.5" fill="white" opacity="0.9"/>
    
    <!-- Add more stars across the background -->
    <circle cx="250" cy="180" r="1.2" fill="white" opacity="0.7"/>
    <circle cx="450" cy="280" r="1" fill="white" opacity="0.6"/>
    <circle cx="650" cy="130" r="1.4" fill="white" opacity="0.8"/>
    <circle cx="850" cy="230" r="1.1" fill="white" opacity="0.7"/>
    <circle cx="1050" cy="180" r="1.6" fill="white" opacity="0.9"/>
    <circle cx="1250" cy="330" r="1.3" fill="white" opacity="0.8"/>
    <circle cx="1450" cy="280" r="1" fill="white" opacity="0.7"/>
    <circle cx="1650" cy="130" r="1.5" fill="white" opacity="0.9"/>
    <circle cx="1850" cy="230" r="1.2" fill="white" opacity="0.8"/>
    <!-- Add larger glowing stars -->
    <circle cx="350" cy="120" r="2.5" fill="white" opacity="1"/>
    <circle cx="350" cy="120" r="4" fill="url(#star_glow)" opacity="0.6"/>
    
    <circle cx="950" cy="200" r="2.2" fill="white" opacity="1"/>
    <circle cx="950" cy="200" r="4" fill="url(#star_glow)" opacity="0.5"/>
    
    <circle cx="1550" cy="150" r="2.8" fill="white" opacity="1"/>
    <circle cx="1550" cy="150" r="5" fill="url(#star_glow)" opacity="0.7"/>
  </g>
  
  <!-- Stylized Clouds -->
  <g opacity="0.15">
    <path d="M0,750 Q480,850 960,750 T1920,800 L1920,1080 L0,1080 Z" fill="white"/>
    <path d="M0,850 Q480,900 960,850 T1920,900 L1920,1080 L0,1080 Z" fill="white" opacity="0.7"/>
  </g>
  
  <!-- Horizon Line -->
  <rect x="0" y="800" width="1920" height="2" fill="#5d8cc0" opacity="0.3"/>
</svg>