<svg xmlns="http://www.w3.org/2000/svg" height="24" viewBox="0 -960 960 960" width="24" fill="#1976d2">
  <path d="M360-260q-21 0-40.5-7.5T284-287L80-491q-9-9-14.5-20.5T60-536q0-14 5.5-25.5T80-582l204-204q16-16 35.5-23.5T360-817q21 0 40.5 7.5T436-787l124 124 216-216q17-17 42.5-17t42.5 17q17 17 17 42.5T861-794L645-578l124 124q16 16 23.5 35.5T800-378q0 21-7.5 40.5T773-302L569-98q-9 9-20.5 14.5T523.5-78q-14 0-25.5-5.5T477-98L273-302q-16-16-23.5-35.5T242-378q0-21 7.5-40.5T269-454l31-31-108-108-128 128q-5 5-12 5t-12-5q-5-5-5-12t5-12l128-128q5-5 12-5t12 5l108 108 84-84-124-124q-5-5-5-12t5-12q5-5 12-5t12 5l294 294q5 5 5 12t-5 12q-5 5-12 5t-12-5L360-449l-31 31q-5 5-5 12t5 12l204 204q5 5 12 5t12-5l204-204q5-5 5-12t-5-12L557-622l216-216q5-5 5-12t-5-12q-5-5-12-5t-12 5L533-646q-5 5-12 5t-12-5L315-840q-5-5-12-5t-12 5L87-636q-5 5-5 12t5 12l204 204q5 5 12 5t12-5q5-5 12-5t12 5q5 5 5 12t-5 12l-31 31q-5 5-12 5t-12-5l-28-28q-5-5-12-5t-12 5q-5 5-5 12t5 12l28 28q16 16 35.5 23.5T320-338q21 0 40.5-7.5T396-369l31-31q16-16 23.5-35.5t7.5-40.5q0-21-7.5-40.5T431-553q-16-16-35.5-23.5T355-584q-21 0-40.5 7.5T279-553q-5 5-12 5t-12-5q-5-5-5-12t5-12q21-21 48-32t52-11q25 0 52 11t48 32q21 21 32 48t11 52q0 25-11 52t-32 48l-31 31q5 5 12 5t12-5l28-28q5-5 12-5t12 5q5 5 5 12t-5 12l-28 28q-16 16-35.5 23.5T360-260Z"/>
</svg>